<?xml version="1.0" encoding="iso-8859-1"?>
<!-- Generator: Adobe Illustrator 19.0.0, SVG Export Plug-In . SVG Version: 6.00 Build 0)  -->
<svg version="1.1" id="Layer_1" xmlns="http://www.w3.org/2000/svg" xmlns:xlink="http://www.w3.org/1999/xlink" x="0px" y="0px"
	 viewBox="0 0 512 512" style="enable-background:new 0 0 512 512;" xml:space="preserve">
<g>
	<g>
		<path d="M416.681,43.574H40.851C18.325,43.574,0,61.9,0,84.426v223.319c0,22.526,18.325,40.851,40.851,40.851h63.392
			l35.763,61.308c1.464,2.51,4.152,4.054,7.058,4.054s5.593-1.544,7.058-4.054l35.763-61.308h63.807c4.512,0,8.17-3.658,8.17-8.17
			s-3.658-8.17-8.17-8.17h-68.5c-2.905,0-5.593,1.544-7.058,4.054l-31.07,53.263l-31.07-53.263c-1.465-2.51-4.153-4.054-7.058-4.054
			H40.851c-13.516,0-24.511-10.995-24.511-24.511V84.426c0-13.516,10.995-24.511,24.511-24.511h375.83
			c13.516,0,24.511,10.995,24.511,24.511v136.177c0,4.512,3.658,8.17,8.17,8.17s8.17-3.658,8.17-8.17V84.426
			C457.532,61.9,439.207,43.574,416.681,43.574z"/>
	</g>
</g>
<g>
	<g>
		<path d="M348.596,144.34h-239.66c-4.512,0-8.17,3.658-8.17,8.17c0,4.512,3.658,8.17,8.17,8.17h239.66
			c4.512,0,8.17-3.658,8.17-8.17C356.766,147.999,353.108,144.34,348.596,144.34z"/>
	</g>
</g>
<g>
	<g>
		<path d="M348.596,187.915h-239.66c-4.512,0-8.17,3.658-8.17,8.17c0,4.512,3.658,8.17,8.17,8.17h239.66
			c4.512,0,8.17-3.658,8.17-8.17C356.766,191.573,353.108,187.915,348.596,187.915z"/>
	</g>
</g>
<g>
	<g>
		<path d="M239.66,231.489H108.936c-4.512,0-8.17,3.658-8.17,8.17c0,4.512,3.658,8.17,8.17,8.17H239.66
			c4.512,0,8.17-3.658,8.17-8.17C247.83,235.147,244.172,231.489,239.66,231.489z"/>
	</g>
</g>
<g>
	<g>
		<path d="M394.894,234.213c-64.573,0-117.106,52.533-117.106,117.106s52.533,117.106,117.106,117.106S512,415.892,512,351.319
			S459.467,234.213,394.894,234.213z M386.723,451.753c-13.653-1.101-26.546-4.935-38.13-10.954l0.002-58.433h38.128V451.753z
			 M354.312,366.026l18.155-32.681h44.853l18.156,32.681H354.312z M381.545,317.004l13.349-24.028l13.349,24.028H381.545z
			 M403.064,451.753v-69.387h38.128l0.001,58.433C429.608,446.818,416.717,450.652,403.064,451.753z M457.533,430.191l-0.001-55.995
			c0-1.389-0.354-2.754-1.028-3.967L429.321,321.3c-0.009-0.016-0.017-0.032-0.026-0.048l-27.259-49.067
			c-1.441-2.594-4.176-4.203-7.142-4.203s-5.701,1.609-7.142,4.203l-27.259,49.067c-0.009,0.016-0.017,0.032-0.026,0.048
			l-27.183,48.929c-0.674,1.214-1.028,2.579-1.028,3.967l-0.002,55.994c-23.215-18.476-38.125-46.963-38.125-78.871
			c0-55.563,45.203-100.766,100.766-100.766c55.563,0,100.766,45.203,100.766,100.766
			C495.66,383.228,480.748,411.714,457.533,430.191z"/>
	</g>
</g>
<g>
</g>
<g>
</g>
<g>
</g>
<g>
</g>
<g>
</g>
<g>
</g>
<g>
</g>
<g>
</g>
<g>
</g>
<g>
</g>
<g>
</g>
<g>
</g>
<g>
</g>
<g>
</g>
<g>
</g>
</svg>
