<?xml version="1.0" standalone="no"?><svg xmlns="http://www.w3.org/2000/svg" viewBox="0 0 1440 320"><path fill="#0099ff" fill-opacity="1" d="M0,160L8.3,154.7C16.6,149,33,139,50,154.7C66.2,171,83,213,99,192C115.9,171,132,85,149,53.3C165.5,21,182,43,199,53.3C215.2,64,232,64,248,74.7C264.8,85,281,107,298,101.3C314.5,96,331,64,348,58.7C364.1,53,381,75,397,96C413.8,117,430,139,447,144C463.4,149,480,139,497,154.7C513.1,171,530,213,546,218.7C562.8,224,579,192,596,154.7C612.4,117,629,75,646,74.7C662.1,75,679,117,695,160C711.7,203,728,245,745,250.7C761.4,256,778,224,794,218.7C811,213,828,235,844,240C860.7,245,877,235,894,202.7C910.3,171,927,117,943,90.7C960,64,977,64,993,90.7C1009.7,117,1026,171,1043,165.3C1059.3,160,1076,96,1092,106.7C1109,117,1126,203,1142,224C1158.6,245,1175,203,1192,197.3C1208.3,192,1225,224,1241,197.3C1257.9,171,1274,85,1291,90.7C1307.6,96,1324,192,1341,218.7C1357.2,245,1374,203,1390,160C1406.9,117,1423,75,1432,53.3L1440,32L1440,320L1431.7,320C1423.4,320,1407,320,1390,320C1373.8,320,1357,320,1341,320C1324.1,320,1308,320,1291,320C1274.5,320,1258,320,1241,320C1224.8,320,1208,320,1192,320C1175.2,320,1159,320,1142,320C1125.5,320,1109,320,1092,320C1075.9,320,1059,320,1043,320C1026.2,320,1010,320,993,320C976.6,320,960,320,943,320C926.9,320,910,320,894,320C877.2,320,861,320,844,320C827.6,320,811,320,794,320C777.9,320,761,320,745,320C728.3,320,712,320,695,320C678.6,320,662,320,646,320C629,320,612,320,596,320C579.3,320,563,320,546,320C529.7,320,513,320,497,320C480,320,463,320,447,320C430.3,320,414,320,397,320C380.7,320,364,320,348,320C331,320,314,320,298,320C281.4,320,265,320,248,320C231.7,320,215,320,199,320C182.1,320,166,320,149,320C132.4,320,116,320,99,320C82.8,320,66,320,50,320C33.1,320,17,320,8,320L0,320Z"></path></svg>